# xmcd CD database file
#
# Track frame offsets:
#	150
#	148815
#	173260
#	228682
#	256365
#	294357
#
# Disc length: 4424 seconds
#
# Revision: 0
# Processed by: cddbd v1.5PL3 Copyright (c) Steve Scherf et al.
# Submitted via: CDex 1.51
#
DISCID=50114606
DTITLE=Other Dimensions In Music - Now!
DYEAR=1998
DGENRE=Jazz
TTITLE0=For The Glass Tear - After Evening's Orange
TTITLE1=Tears For The Boy Wonder (For Winton Marsalis)
TTITLE2=Blues Expanded
TTITLE3=Whispers and Cries Of Change (For Departed Musical Warriors)
TTITLE4=Dawn
TTITLE5=Steve's Festive Visions Revisted
EXTD=YEAR: 1998
EXTT0=
EXTT1=
EXTT2=
EXTT3=
EXTT4=
EXTT5=
PLAYORDER=
